<?xml version="1.0" encoding="UTF-8" standalone="no"?>
<!-- Created with Inkscape (http://www.inkscape.org/) -->

<svg
   width="512"
   height="512"
   viewBox="0 0 135.46667 135.46667"
   version="1.1"
   id="svg5"
   xml:space="preserve"
   inkscape:version="1.2.2 (b0a8486541, 2022-12-01)"
   sodipodi:docname="logo.svg"
   inkscape:export-filename="logo256.png"
   inkscape:export-xdpi="48"
   inkscape:export-ydpi="48"
   xmlns:inkscape="http://www.inkscape.org/namespaces/inkscape"
   xmlns:sodipodi="http://sodipodi.sourceforge.net/DTD/sodipodi-0.dtd"
   xmlns="http://www.w3.org/2000/svg"
   xmlns:svg="http://www.w3.org/2000/svg"><sodipodi:namedview
     id="namedview7"
     pagecolor="#505050"
     bordercolor="#eeeeee"
     borderopacity="1"
     inkscape:showpageshadow="0"
     inkscape:pageopacity="0"
     inkscape:pagecheckerboard="0"
     inkscape:deskcolor="#505050"
     inkscape:document-units="mm"
     showgrid="false"
     inkscape:zoom="0.914906"
     inkscape:cx="321.89099"
     inkscape:cy="212.59014"
     inkscape:window-width="2560"
     inkscape:window-height="1398"
     inkscape:window-x="1080"
     inkscape:window-y="480"
     inkscape:window-maximized="1"
     inkscape:current-layer="layer1" /><defs
     id="defs2"><inkscape:path-effect
       effect="spiro"
       id="path-effect5779"
       is_visible="true"
       lpeversion="1" /></defs><g
     inkscape:label="Layer 1"
     inkscape:groupmode="layer"
     id="layer1"><path
       d="M 79.15208,64.719257 49.577122,35.146936 c -1.700266,-1.707026 -4.464927,-1.707026 -6.165194,0 l -6.870181,6.86957 5.169914,5.169454 c 0.829398,-0.393931 1.755559,-0.621994 2.737019,-0.621994 3.504204,0 6.351801,2.840436 6.351801,6.351241 0,0.981372 -0.221169,1.907451 -0.622043,2.736774 l 8.46677,8.46602 c 0.829397,-0.393931 1.755565,-0.621994 2.737018,-0.621994 3.504204,0 6.351804,2.840437 6.351804,6.351241 0,3.503892 -2.840686,6.351241 -6.351804,6.351241 -3.511118,0 -6.351814,-2.840436 -6.351814,-6.351241 0,-0.981366 0.221176,-1.907444 0.62205,-2.736768 l -8.46677,-8.459108 c -0.20044,0.09674 -0.407788,0.179683 -0.62205,0.255704 v 17.657698 c 2.467458,0.870791 4.229932,3.220541 4.229932,5.984957 0,3.503896 -2.84069,6.35124 -6.351808,6.35124 -3.511123,0 -6.351808,-2.84043 -6.351808,-6.35124 0,-2.764416 1.769382,-5.114166 4.229931,-5.984957 V 58.907076 c -2.467458,-0.870791 -4.229931,-3.220541 -4.229931,-5.984956 0,-0.981366 0.22117,-1.907444 0.622044,-2.736768 L 33.542088,45.015896 13.9752,64.581042 c -1.700267,1.707022 -1.700267,4.464523 0,6.171551 l 29.574962,29.572317 c 1.700267,1.70011 4.464928,1.70011 6.172102,0 l 29.43673,-29.434095 c 1.700267,-1.707028 1.700267,-4.471443 -0.0069,-6.171558 z"
       id="path4071"
       style="stroke-width:0.0691133;fill:#ffffff;fill-opacity:1" /><path
       style="fill:none;fill-opacity:1;stroke:#ffffff;stroke-width:3.175;stroke-dasharray:none;stroke-opacity:1"
       d="M 59.189961,48.772561 80.126379,27.836143 h 34.407561"
       id="path6561" /><path
       style="fill:none;fill-opacity:1;stroke:#ffffff;stroke-width:3.175;stroke-dasharray:none;stroke-opacity:1"
       d="M 71.914506,36.126242 86.603717,50.815454 H 104.0357"
       id="path7375" /><path
       style="fill:none;fill-opacity:1;stroke:#ffffff;stroke-width:3.175;stroke-dasharray:none;stroke-opacity:1"
       d="m 71.215887,77.094965 15.205339,15.20534 h 20.470944"
       id="path7377" /><path
       style="fill:none;fill-opacity:1;stroke:#ffffff;stroke-width:3.175;stroke-dasharray:none;stroke-opacity:1"
       d="m 80.548463,86.552547 -11.6127,11.6127 15.931356,15.931353 h 21.292331"
       id="path7379" /></g></svg>
