<svg xmlns="http://www.w3.org/2000/svg" xml:space="preserve" width="512" height="512" viewBox="0 0 135.467 135.467"><path d="M79.152 64.72 49.577 35.146a4.351 4.351 0 0 0-6.165 0l-6.87 6.87 5.17 5.169a6.352 6.352 0 0 1 8.467 8.466l8.466 8.466a6.352 6.352 0 1 1-2.993 2.992l-8.466-8.459c-.2.097-.408.18-.622.256v17.658a6.343 6.343 0 0 1 4.23 5.985 6.352 6.352 0 0 1-6.352 6.351 6.348 6.348 0 0 1-6.352-6.351 6.352 6.352 0 0 1 4.23-5.985V58.907a6.343 6.343 0 0 1-4.23-5.985c0-.981.221-1.907.622-2.737l-5.17-5.17-19.567 19.566a4.371 4.371 0 0 0 0 6.172l29.575 29.572c1.7 1.7 4.465 1.7 6.172 0L79.16 70.89a4.365 4.365 0 0 0-.007-6.172z" style="stroke-width:.0691133;fill:#fff;fill-opacity:1"/><path d="m59.19 48.773 20.936-20.937h34.408" style="fill:none;fill-opacity:1;stroke:#fff;stroke-width:3.175;stroke-dasharray:none;stroke-opacity:1"/><path d="m71.915 36.126 14.689 14.69h17.432M71.216 77.095 86.42 92.3h20.471M80.548 86.553 68.936 98.165l15.931 15.932h21.292" style="fill:none;fill-opacity:1;stroke:#fff;stroke-width:3.175;stroke-dasharray:none;stroke-opacity:1"/></svg>